@startuml

package bookManageSystem <<Frame>> #f5f5f5{
class 读者{
'属性
    姓名
    性别
    用户名
    密码
    生日
    年龄
    学院
    个人头像
    个性签名

'方法
    查询借阅信息()
    修改个人信息()
}
class 教师{
    教师工号
    教导课程编号
}
class 学生{
    学号
    年级
    专业
}

class 管理员{
'属性
    用户名
    密码
    姓名
    性别
    管理员工号
    身份
    个人头像

'方法
    添加图书()
    修改（删除）图书()
}
class 图书管理员{
     解除预定()
     允许借书()
     允许续借()
     允许还书()
     收罚金()
     修改个人信息()
}
class 系统管理员{
     发布新公告()
     维护系统()
}
class 注册登录{
    用户名
    密码
    验证码
    登录()
    注册()
}
class 图书{
    书名
    作者
    出版社
    出版年份

    查询图书信息()
    修改图书信息()
}
class 图书操作{
    读者编号
    图书编号
    操作时间

    借阅图书()
    续借图书()
    归还图书()
    缴纳罚金()
    预定()
    取消预定()
}
class 图书馆藏资源品种{
    资源名称
    单价
    简介
    数量
    库存
    编号
    是否可借
}
class 罚款明细{
    罚款id
    读者编号
    书籍编号
    应还时间
    归还时间
    超时金额
}

    图书 --|> 图书馆藏资源品种
    教师 --|> 读者
    学生 --|> 读者
    管理员<|--图书管理员
    管理员<|--系统管理员
    图书馆藏资源品种"*"--"1..*"管理员:馆藏更新
    读者"*"--"1..*"管理员:增删改
    读者"*"--"1..*"注册登录:注册登录
    读者"*"--"1"图书操作
    读者"*"--"1..*"罚款明细:逾期罚款
    图书馆藏资源品种"1..*"--"1..*"图书操作:借阅归还

}

@enduml